<svg width="32" height="32" viewBox="0 0 32 32" fill="none" xmlns="http://www.w3.org/2000/svg">
<path d="M0.695784 19.0467L1.80768 20.1586L5.17989 16.7863H6.99524L3.60324 20.1784L4.71514 21.2904L9.21903 16.7863H15.2137L8.11189 22.7762L2.79038 22.7761V24.3486L8.11189 22.7762L3.38432 27.5038L4.49622 28.6157L9.22368 23.8881L7.65124 29.2097H9.22368V23.8881L15.2137 16.7863V22.7809L10.7096 27.2849L11.8216 28.3968L15.2137 25.0046V26.82L11.8414 30.1922L12.9533 31.3042L15.2137 26.82V32H16.7863V26.82L19.0467 31.3042L20.1586 30.1922L16.7863 26.82V25.0046L20.1784 28.3968L21.2904 27.2849L16.7863 22.7809V16.7863L22.7763 23.8881V29.2097H24.3488L22.7763 23.8881L27.5038 28.6157L28.6157 27.5038L23.8881 22.7762L29.2097 24.3486V22.7761L23.8881 22.7762L16.7863 16.7863H22.7809L27.2849 21.2904L28.3968 20.1784L25.0046 16.7863H26.82L30.1921 20.1586L31.3041 19.0467L26.82 16.7863H32V15.2137H26.82L31.3041 12.9533L30.1921 11.8414L26.82 15.2137H25.0046L28.3968 11.8216L27.2849 10.7096L22.7809 15.2137H16.7863L23.888 9.22389H29.2097V7.65135L23.888 9.22389L27.9947 5.11719L26.8828 4.0053L22.7763 8.11178L24.3488 2.79027H22.7763V8.11178L16.7863 15.2137V9.21914L21.2904 4.71514L20.1784 3.60324L16.7863 6.99535V5.18011L20.1586 1.80778L19.0467 0.695892L16.7863 5.18011V0H15.2137V5.18011L12.9533 0.695892L11.8414 1.80778L15.2137 5.18011V6.99535L11.8216 3.60324L10.7096 4.71514L15.2137 9.21914V15.2137L9.22368 8.11178V2.79027H7.65124L9.22368 8.11178L5.11719 4.0053L4.0053 5.11719L8.112 9.22389L2.79038 7.65135V9.22389H8.112L15.2137 15.2137H9.21903L4.71514 10.7096L3.60324 11.8216L6.99524 15.2137H5.17989L1.80768 11.8414L0.695784 12.9533L5.17989 15.2137H0V16.7863H5.17989L0.695784 19.0467Z" fill="url(#paint0_linear)"/>
<defs>
<linearGradient id="paint0_linear" x1="4.5946" y1="4.54054" x2="28.1081" y2="28.1081" gradientUnits="userSpaceOnUse">
<stop stop-color="#D02F73"/>
<stop offset="1" stop-color="#FFB0CC"/>
</linearGradient>
</defs>
</svg>
