<svg width="512" height="512" viewBox="0 0 512 512" fill="none" xmlns="http://www.w3.org/2000/svg">
<path d="M141.485 100.301C150.408 100.301 157.641 93.0677 157.641 84.145C157.641 75.2223 150.408 67.989 141.485 67.989C132.562 67.989 125.329 75.2223 125.329 84.145C125.329 93.0677 132.562 100.301 141.485 100.301Z" fill="#FBCBDA"/>
<path d="M395.334 74.071C404.257 74.071 411.49 66.8377 411.49 57.915C411.49 48.9923 404.257 41.759 395.334 41.759C386.411 41.759 379.178 48.9923 379.178 57.915C379.178 66.8377 386.411 74.071 395.334 74.071Z" fill="#FBCBDA"/>
<path d="M394.172 139.305C394.172 139.305 442.891 66.28 341.287 3.112C330.226 -3.764 315.838 1.238 311.139 13.384C303.954 31.956 281.838 55.667 217.36 63.727C147.677 72.437 105.744 94.331 128.234 169.951C128.234 169.951 256 235.982 394.172 139.305Z" fill="url(#paint0_linear)"/>
<path d="M394.172 139.305C394.172 139.305 297.17 196.451 128.234 169.951C128.234 169.951 87.169 222.234 130.618 270.191H376.974C376.974 270.191 446.302 225.074 394.172 139.305V139.305Z" fill="url(#paint1_linear)"/>
<path d="M180.698 409.488L191.314 479.99C194.085 498.391 209.896 512 228.505 512H283.495C302.104 512 317.915 498.391 320.686 479.99L331.303 409.488H180.698Z" fill="url(#paint2_linear)"/>
<path d="M379.178 324.005H132.822C113.444 324.005 97.735 308.296 97.735 288.918C97.735 269.54 113.444 253.831 132.822 253.831H379.178C398.556 253.831 414.265 269.54 414.265 288.918C414.265 308.296 398.556 324.005 379.178 324.005Z" fill="url(#paint3_linear)"/>
<path d="M132.822 324.005L143.981 392.996C148.091 418.405 170.028 437.08 195.768 437.08H316.233C341.973 437.08 363.91 418.406 368.02 392.996L379.178 324.005H132.822Z" fill="url(#paint4_linear)"/>
<path d="M251.877 74.071C260.8 74.071 268.033 66.8377 268.033 57.915C268.033 48.9923 260.8 41.759 251.877 41.759C242.954 41.759 235.721 48.9923 235.721 57.915C235.721 66.8377 242.954 74.071 251.877 74.071Z" fill="#FBCBDA"/>
<path d="M196.853 132.613C205.776 132.613 213.009 125.38 213.009 116.457C213.009 107.534 205.776 100.301 196.853 100.301C187.93 100.301 180.697 107.534 180.697 116.457C180.697 125.38 187.93 132.613 196.853 132.613Z" fill="#FBCBDA"/>
<path d="M331.302 112.136C340.225 112.136 347.458 104.903 347.458 95.98C347.458 87.0573 340.225 79.824 331.302 79.824C322.379 79.824 315.146 87.0573 315.146 95.98C315.146 104.903 322.379 112.136 331.302 112.136Z" fill="#FBCBDA"/>
<path d="M174.245 227.58C182.494 227.58 189.181 222.206 189.181 215.577C189.181 208.948 182.494 203.574 174.245 203.574C165.996 203.574 159.309 208.948 159.309 215.577C159.309 222.206 165.996 227.58 174.245 227.58Z" fill="#FBCBDA"/>
<path d="M350.016 227.58C358.265 227.58 364.952 222.206 364.952 215.577C364.952 208.948 358.265 203.574 350.016 203.574C341.767 203.574 335.08 208.948 335.08 215.577C335.08 222.206 341.767 227.58 350.016 227.58Z" fill="#FBCBDA"/>
<path d="M199.852 215.577C216.21 215.577 229.47 202.317 229.47 185.959C229.47 169.601 216.21 156.341 199.852 156.341C183.494 156.341 170.234 169.601 170.234 185.959C170.234 202.317 183.494 215.577 199.852 215.577Z" fill="white"/>
<path d="M187.886 203.611C197.635 203.611 205.538 195.708 205.538 185.959C205.538 176.21 197.635 168.307 187.886 168.307C178.137 168.307 170.234 176.21 170.234 185.959C170.234 195.708 178.137 203.611 187.886 203.611Z" fill="#383842"/>
<path d="M324.409 215.577C340.767 215.577 354.027 202.317 354.027 185.959C354.027 169.601 340.767 156.341 324.409 156.341C308.051 156.341 294.791 169.601 294.791 185.959C294.791 202.317 308.051 215.577 324.409 215.577Z" fill="white"/>
<path d="M312.444 203.611C322.193 203.611 330.096 195.708 330.096 185.959C330.096 176.21 322.193 168.307 312.444 168.307C302.695 168.307 294.792 176.21 294.792 185.959C294.792 195.708 302.695 203.611 312.444 203.611Z" fill="#383842"/>
<path d="M269.721 193.153H254.54C251.533 193.153 248.882 195.129 248.034 198.015C245.362 207.105 242.292 225.763 262.131 225.763C281.969 225.763 278.9 207.104 276.228 198.015C275.379 195.13 272.728 193.153 269.721 193.153V193.153Z" fill="#383842"/>
<path d="M249.923 221.563C252.384 224.112 256.243 225.763 262.13 225.763C268.017 225.763 271.876 224.112 274.338 221.563C273.091 216.718 268.104 213.093 262.13 213.093C256.157 213.093 251.17 216.718 249.923 221.563Z" fill="#FF737D"/>
<defs>
<linearGradient id="paint0_linear" x1="122.134" y1="95.98" x2="405.847" y2="95.98" gradientUnits="userSpaceOnUse">
<stop stop-color="#D02F73"/>
<stop offset="1" stop-color="#FFB0CC"/>
</linearGradient>
<linearGradient id="paint1_linear" x1="110.669" y1="204.748" x2="413.592" y2="204.748" gradientUnits="userSpaceOnUse">
<stop stop-color="#D02F73"/>
<stop offset="1" stop-color="#FFB0CC"/>
</linearGradient>
<linearGradient id="paint2_linear" x1="180.698" y1="460.744" x2="331.302" y2="460.744" gradientUnits="userSpaceOnUse">
<stop stop-color="#FF9827"/>
<stop offset="1" stop-color="#F4F2ED"/>
</linearGradient>
<linearGradient id="paint3_linear" x1="97.735" y1="288.918" x2="414.265" y2="288.918" gradientUnits="userSpaceOnUse">
<stop stop-color="#FFC477"/>
<stop offset="1" stop-color="#F4F2ED"/>
</linearGradient>
<linearGradient id="paint4_linear" x1="132.822" y1="380.543" x2="379.178" y2="380.543" gradientUnits="userSpaceOnUse">
<stop stop-color="#FFAC48"/>
<stop offset="1" stop-color="#F4F2ED"/>
</linearGradient>
</defs>
</svg>
